<svg viewBox="0 0 64 44" fill="none" xmlns="http://www.w3.org/2000/svg">
  <rect width="64" height="44" rx="10" fill="#0b1220"/>
  <path fill="#f5c518" d="M4 7c0-2.2 1.8-4 4-4h36.4L60 16.2V37c0 2.2-1.8 4-4 4H8c-2.2 0-4-1.8-4-4V7Z"/>
  <path fill="#e6b000" d="M44.4 3 60 16.2H48.8c-2.2 0-4-1.8-4-4V3Z"/>
  <circle fill="#0b1220" cx="4" cy="13" r="2.4"/>
  <circle fill="#0b1220" cx="4" cy="22" r="1.8"/>
  <circle fill="#0b1220" cx="4" cy="31.5" r="2.4"/>
  <rect fill="#0b1220" x="11" y="9" width="2.4" height="3.4" rx="0.5"/>
  <rect fill="#0b1220" x="11" y="16.2" width="2.4" height="3.4" rx="0.5"/>
  <rect fill="#0b1220" x="11" y="23.4" width="2.4" height="3.4" rx="0.5"/>
  <rect fill="#0b1220" x="11" y="30.6" width="2.4" height="3.4" rx="0.5"/>
  <path fill="#0b1220" d="M19 12.2h11.2v2.6H21.8v3.3h7.4v2.5h-7.4v3.5h8.6v2.6H19V12.2Z"/>
  <path fill="#0b1220" d="M33.2 12.2h6.2c4.1 0 6.8 2.5 6.8 6.7s-2.7 6.8-6.8 6.8h-6.2V12.2Zm2.8 2.6v8.3h3.2c2.4 0 3.9-1.4 3.9-4.2 0-2.7-1.5-4.1-3.9-4.1h-3.2Z"/>
  <path stroke="#0b1220" stroke-width="2.2" stroke-linecap="square" d="M30.5 33.5 46 10"/>
</svg>
